<svg xmlns="http://www.w3.org/2000/svg" viewBox="0 0 32 32">
  <path fill="#888888" d="M 26.599523,27 H 21.49628 c -0.332374,0 -0.601994,-0.08042 -0.807927,-0.241728 -0.205934,-0.161307 -0.369098,-0.352364 -0.490892,-0.573638 l -4.40874,-7.699953 c -0.08089,0.222204 -0.171534,0.412331 -0.271479,0.573638 l -4.107044,7.126315 c -0.141318,0.20175 -0.307273,0.387694 -0.498332,0.558298 C 10.720808,26.914466 10.473967,27 10.171808,27 H 5.4004772 L 12.481701,15.676457 5.6724208,5.0004647 h 5.1032422 c 0.33191,0 0.576426,0.04323 0.73262,0.1283013 0.155728,0.086002 0.294722,0.2291767 0.415121,0.4304612 l 4.378989,7.4135998 c 0.05021,-0.130162 0.107847,-0.256603 0.173857,-0.377467 0.06508,-0.121794 0.138064,-0.246841 0.21895,-0.377932 L 20.530301,5.634535 C 20.672082,5.4127961 20.819445,5.2519541 20.975636,5.1510795 21.13183,5.0502049 21.325212,5 21.557178,5 h 4.892194 l -6.900858,10.464945 z" />
</svg>
